<svg width="61" height="58" viewBox="0 0 61 58" fill="none" xmlns="http://www.w3.org/2000/svg">
<path fill-rule="evenodd" clip-rule="evenodd" d="M27.2649 1.74625e-07C24.2281 1.74625e-07 21.6385 1.96317 21.1385 4.63996L20.549 7.8142C20.4828 8.16953 20.1682 8.58407 19.5655 8.84465C18.4307 9.33236 17.3392 9.89659 16.3002 10.5324C15.7505 10.873 15.1942 10.9055 14.81 10.7782L11.4422 9.64709C10.0654 9.18587 8.55017 9.17647 7.16632 9.62055C5.78247 10.0646 4.61977 10.9334 3.88516 12.0722L0.831893 16.801C0.09702 17.9391 -0.162524 19.2734 0.0994312 20.5665C0.361386 21.8596 1.12785 23.0278 2.26249 23.8631L5.04421 25.9121C5.35881 26.1431 5.60718 26.5902 5.55419 27.1854C5.45982 28.308 5.45982 29.4354 5.55419 30.558C5.60387 31.1502 5.35881 31.6003 5.04752 31.8313L2.26249 33.8803C1.12785 34.7156 0.361386 35.8837 0.0994312 37.1769C-0.162524 38.47 0.09702 39.8043 0.831893 40.9424L3.88516 45.6712C4.62029 46.8094 5.78322 47.6776 7.16702 48.1211C8.55082 48.5646 10.0657 48.5548 11.4422 48.0933L14.8167 46.9622C15.1975 46.8349 15.7538 46.8704 16.3069 47.205C17.3401 47.8387 18.4296 48.4042 19.5688 48.8928C20.1715 49.1534 20.4861 49.5679 20.5523 49.9292L21.1418 53.1005C21.6418 55.7772 24.2315 57.7404 27.2682 57.7404H33.3747C36.4081 57.7404 39.0011 55.7772 39.5011 53.1005L40.0906 49.9262C40.1568 49.5709 40.4681 49.1563 41.0741 48.8928C42.2133 48.4042 43.3028 47.8387 44.336 47.205C44.889 46.8674 45.4454 46.8349 45.8262 46.9622L49.204 48.0933C50.58 48.5529 52.0937 48.5615 53.4761 48.1175C54.8584 47.6735 56.02 46.8057 56.7544 45.6682L59.811 40.9394C60.5459 39.8013 60.8054 38.467 60.5434 37.1739C60.2815 35.8808 59.515 34.7127 58.3804 33.8773L55.5987 31.8283C55.2841 31.5973 55.0357 31.1502 55.0887 30.555C55.1829 29.4324 55.1829 28.305 55.0887 27.1824C55.0357 26.5902 55.2841 26.1401 55.5954 25.9092L58.3771 23.8601C60.7217 22.1368 61.3277 19.1521 59.811 16.798L56.7577 12.0692C56.0226 10.931 54.8597 10.0628 53.4759 9.6193C52.0921 9.17577 50.5772 9.18562 49.2007 9.64709L45.8229 10.7782C45.4454 10.9055 44.889 10.87 44.336 10.5324C43.2982 9.89669 42.2077 9.33247 41.0741 8.84465C40.4681 8.58704 40.1568 8.17249 40.0906 7.8142L39.4978 4.63996C39.2563 3.34321 38.508 2.16516 37.3861 1.31549C36.2643 0.465826 34.8416 -0.000329388 33.3714 1.74625e-07H27.2682H27.2649ZM30.3181 39.9741C33.6117 39.9741 36.7704 38.8043 39.0993 36.7219C41.4282 34.6395 42.7365 31.8151 42.7365 28.8702C42.7365 25.9253 41.4282 23.1009 39.0993 21.0185C36.7704 18.9362 33.6117 17.7663 30.3181 17.7663C27.0246 17.7663 23.8659 18.9362 21.537 21.0185C19.2081 23.1009 17.8997 25.9253 17.8997 28.8702C17.8997 31.8151 19.2081 34.6395 21.537 36.7219C23.8659 38.8043 27.0246 39.9741 30.3181 39.9741Z" fill="white"/>
</svg>
