<svg width="50" height="54" viewBox="0 0 50 54" fill="none" xmlns="http://www.w3.org/2000/svg">
<path d="M7.14275 11.3417C7.14275 8.33369 8.17749 5.44889 10.0193 3.32191C11.8612 1.19493 14.3593 0 16.964 0C19.5688 0 22.0669 1.19493 23.9087 3.32191C25.7506 5.44889 26.7853 8.33369 26.7853 11.3417C26.7853 14.3497 25.7506 17.2345 23.9087 19.3615C22.0669 21.4885 19.5688 22.6834 16.964 22.6834C14.3593 22.6834 11.8612 21.4885 10.0193 19.3615C8.17749 17.2345 7.14275 14.3497 7.14275 11.3417ZM30.3567 17.5281C30.3567 16.3095 30.5645 15.1028 30.9684 13.9769C31.3722 12.8511 31.9641 11.8281 32.7103 10.9664C33.4564 10.1047 34.3423 9.42121 35.3172 8.95487C36.2921 8.48853 37.337 8.24851 38.3923 8.24851C39.4475 8.24851 40.4925 8.48853 41.4674 8.95487C42.4423 9.42121 43.3281 10.1047 44.0743 10.9664C44.8205 11.8281 45.4124 12.8511 45.8162 13.9769C46.22 15.1028 46.4279 16.3095 46.4279 17.5281C46.4279 19.9892 45.5813 22.3495 44.0743 24.0897C42.5673 25.83 40.5235 26.8076 38.3923 26.8076C36.2611 26.8076 34.2172 25.83 32.7103 24.0897C31.2033 22.3495 30.3567 19.9892 30.3567 17.5281ZM0 46.3979C6.70424e-08 41.2022 1.78728 36.2194 4.96865 32.5455C8.15002 28.8716 12.4649 26.8076 16.964 26.8076C21.4632 26.8076 25.778 28.8716 28.9594 32.5455C32.1408 36.2194 33.9281 41.2022 33.9281 46.3979V46.4061L33.9257 46.7333C33.9206 47.083 33.8387 47.4254 33.6875 47.7284C33.5363 48.0314 33.3208 48.2851 33.0614 48.4655C28.2024 51.8445 22.636 53.6253 16.964 53.6153C11.0784 53.6153 5.56896 51.7346 0.869035 48.4655C0.60916 48.2854 0.393249 48.0319 0.241631 47.7289C0.0900135 47.4258 0.00767926 47.0832 0.00238103 46.7333L0 46.3979ZM37.4994 46.4061L37.4971 46.802C37.4837 47.7185 37.2943 48.62 36.9423 49.4416C41.0987 49.7376 45.2503 48.7806 48.9897 46.6646C49.2789 46.5013 49.5245 46.2508 49.7006 45.9396C49.8766 45.6284 49.9765 45.268 49.9897 44.8966C50.0738 42.5905 49.6407 40.2983 48.7324 38.2421C47.8241 36.186 46.4715 34.4356 44.8054 33.1604C43.1393 31.8852 41.2163 31.1284 39.2227 30.9635C37.229 30.7985 35.2322 31.2308 33.4257 32.2187C36.0761 36.3115 37.5048 41.2871 37.4971 46.3979L37.4994 46.4061Z" fill="white"/>
</svg>
